# xmcd
#
# Track frame offsets:
#	150
#	42788
#	62207
#	84486
#	107572
#	128921
#	146987
#	179318
#	215257
#	238591
#	270362
#
# Disc length: 3941 seconds
#
# Revision: 1
# Processed by: cddbd v1.5.2PL0 Copyright (c) Steve Scherf et al.
# Submitted via: audiograbber 1.83.01
#
DISCID=990f630b
DTITLE=Håkan Nesser - Der Kommissar und das Schweigen - CD 3
DYEAR=2006
DGENRE=Hörbuch
TTITLE0=Der Kommissar und das Schweigen - Teil 3
TTITLE1=Der Kommissar und das Schweigen - Teil 3
TTITLE2=Der Kommissar und das Schweigen - Teil 3
TTITLE3=Der Kommissar und das Schweigen - Teil 3
TTITLE4=Der Kommissar und das Schweigen - Teil 3
TTITLE5=Der Kommissar und das Schweigen - Teil 3
TTITLE6=Der Kommissar und das Schweigen - Teil 3
TTITLE7=Der Kommissar und das Schweigen - Teil 3
TTITLE8=Der Kommissar und das Schweigen - Teil 3
TTITLE9=Der Kommissar und das Schweigen - Teil 3
TTITLE10=Der Kommissar und das Schweigen - Teil 3
EXTD=
EXTT0=
EXTT1=
EXTT2=
EXTT3=
EXTT4=
EXTT5=
EXTT6=
EXTT7=
EXTT8=
EXTT9=
EXTT10=
PLAYORDER=
